<?xml version="1.0" encoding="UTF-8"?>
<svg id="Layer_2" data-name="Layer 2" xmlns="http://www.w3.org/2000/svg" viewBox="0 0 1870.45 1870.45">
  <defs>
    <style>
      .cls-1 {
        fill: #99f;
      }

      .cls-2 {
        fill: #00005b;
      }
    </style>
  </defs>
  <g id="Layer_1-2" data-name="Layer 1">
    <circle class="cls-1" cx="935.23" cy="935.23" r="935.23"/>
    <g>
      <rect class="cls-2" x="343.47" y="358.27" width="1183.51" height="1153.92" rx="90.75" ry="90.75"/>
      <path class="cls-1" d="M818.94,1048.64h-183.41l-37.32,116.14c-1.01,4.38-5.02,7.41-9.51,7.16h-92.79c-5.29,0-7.14-2.93-5.54-8.75l158.8-455.42c1.57-4.76,3.16-9.42,4.76-15.5,2.08-10.6,3.14-21.37,3.16-32.17-.37-2.68,1.5-5.16,4.18-5.54.46-.07.93-.07,1.39,0h126.23c3.7,0,5.82,1.32,6.35,3.97l180.13,505.46c1.54,5.3-.05,7.94-4.76,7.94h-103.23c-3.67.4-7.06-1.98-7.94-5.57l-40.48-117.73ZM664.21,950.72h125.45c-3.19-10.58-6.9-22.49-11.13-35.73-4.23-13.24-8.73-27.4-13.49-42.47l-14.3-45.26c-4.76-15.07-9.12-29.63-13.09-43.67-3.97-14.04-7.57-26.87-10.81-38.5h-.81c-4.46,21.44-10.02,42.64-16.67,63.51-7.41,23.83-14.95,48.18-22.63,73.05-7.68,24.86-15.22,47.89-22.61,69.07h.09Z"/>
      <path class="cls-1" d="M1267.52,1003.45h-156.42c1.91,15.47,7.05,30.38,15.08,43.74,8.88,13.23,21.44,23.58,36.12,29.77,19.91,8.62,41.45,12.84,63.14,12.38,17.2-.33,34.34-2.21,51.2-5.63,15.09-2.06,29.87-5.93,44.02-11.55,2.65-2.09,3.97-.77,3.97,3.97v75.43c.49,3.85-1.39,7.61-4.76,9.54-15.71,6.95-32.24,11.87-49.19,14.64-23.03,4.34-46.43,6.33-69.86,5.96-37.6,0-69.09-5.82-94.48-17.46-24.01-10.58-45.22-26.62-61.94-46.84-15.59-19.05-27.2-41.04-34.13-64.66-6.85-23.34-10.33-47.54-10.32-71.87-.07-26.55,4.09-52.95,12.31-78.2,7.93-24.63,20.47-47.53,36.95-67.48,16.25-19.72,36.56-35.7,59.56-46.84,23.28-11.39,50.81-15.47,82.56-15.47,26.34-.65,52.5,4.51,76.63,15.1,20.28,8.64,38.13,22.12,51.99,39.26,13.02,16.78,22.96,35.73,29.38,55.98,6.26,19.51,9.47,39.86,9.54,60.35,0,11.64-.4,22.22-1.2,31.75-.79,9.51-1.45,16.4-1.96,20.65-.44,3.62-3.51,6.34-7.16,6.35-3.17,0-8.6.39-16.28,1.18-7.67.81-17.21,1.32-28.57,1.59s-23.46-1.64-36.17-1.64ZM1111.1,931.12h103.92c12.7,0,22.09-.13,28.17-.39,4.08-.41,8.02-1.71,11.55-3.81v-4.78c-.17-6.2-1.24-12.35-3.19-18.24-8.8-27.85-35.13-46.38-64.32-45.26-27.3-1.64-52.99,13-65.5,37.32-5.41,11.08-9,22.95-10.65,35.17h0Z"/>
    </g>
  </g>
</svg>