<?xml version="1.0" encoding="UTF-8"?>
<svg id="Layer_2" data-name="Layer 2" xmlns="http://www.w3.org/2000/svg" viewBox="0 0 1870.45 1870.45">
  <defs>
    <style>
      .cls-1 {
        fill: #fff;
      }

      .cls-2 {
        fill: #265787;
      }

      .cls-3 {
        fill: #ea7600;
      }
    </style>
  </defs>
  <g id="Layer_1-2" data-name="Layer 1">
    <circle class="cls-1" cx="935.23" cy="935.23" r="935.23"/>
    <g>
      <path class="cls-1" d="M803.1,990.48c4.5-80.35,43.85-151.13,103.2-201.31,58.22-49.26,136.57-79.39,222.04-79.39s163.75,30.05,222.01,79.51c59.35,50.18,98.65,120.96,103.2,201.24,4.5,82.55-28.69,159.24-86.91,216.08-59.35,57.82-143.76,94.13-238.31,94.13s-179.13-36.31-238.43-94.13c-58.34-56.96-91.33-133.65-86.81-216.13Z"/>
      <path class="cls-2" d="M961.48,997.7c2.3-41.23,22.51-77.56,52.95-103.3,66.24-54.31,161.61-54.31,227.85,0,30.42,25.75,50.62,62.08,52.95,103.25,2.3,42.36-14.84,81.61-44.52,110.87-30.44,29.68-73.77,48.3-122.27,48.3s-91.9-18.62-122.35-48.3c-29.97-29.16-46.94-68.51-44.62-110.82Z"/>
      <path class="cls-3" d="M695.74,1081.12c.27,16.12,5.42,47.48,13.13,71.97,16.67,52.74,44.66,101.21,82.01,142.01,40.04,44.05,88.92,79.16,143.44,103.06,120.25,52.47,256.99,52.2,377.03-.77,54.52-24.13,103.38-59.41,143.44-103.57,37.3-40.94,65.27-89.48,81.98-142.28,8.11-25.81,13.29-52.45,15.43-79.41,2.04-26.31,1.21-52.76-2.47-78.89-7.24-50.84-25.06-99.59-52.31-143.12-25.27-40.48-57.58-76.1-95.41-105.18h0l-386.2-296.43c-.35-.27-.64-.54-1.01-.79-25.32-19.44-67.94-19.36-95.78,0-27.85,19.36-31.38,52.28-6.33,72.86h0l161.03,131.08-490.82.52h-.67c-40.66.15-79.59,26.76-87.38,60.47-7.94,34.28,19.61,62.72,61.83,62.87v.15l248.8-.47-444.05,340.57-1.71,1.26c-41.87,32.18-55.42,85.5-29.03,119.25,26.76,34.3,83.69,34.38,126.13.2l242.37-198.3c-1.97,14.24-3.11,28.58-3.44,42.96ZM1318.33,1170.65c-49.91,50.85-119.8,79.68-195.38,79.83-75.58.15-145.64-28.44-195.55-79.14-23.59-23.68-41.8-52.18-53.37-83.54-10.91-29.83-15.13-61.69-12.37-93.34,2.64-30.88,11.77-60.86,26.78-87.97,15.08-27.12,35.23-51.09,59.35-70.61,48.52-39.57,110.3-60.96,174.92-61.04s126.43,21.12,175,60.54c24.12,19.43,44.27,43.33,59.35,70.39,15.02,27.07,24.17,57,26.86,87.85,2.75,31.63-1.48,63.47-12.37,93.29-11.54,31.41-29.7,59.97-53.25,83.74Z"/>
    </g>
  </g>
</svg>