<?xml version="1.0" encoding="UTF-8"?>
<svg id="Layer_2" data-name="Layer 2" xmlns="http://www.w3.org/2000/svg" xmlns:xlink="http://www.w3.org/1999/xlink" viewBox="0 0 1870.45 1870.45">
  <defs>
    <style>
      .cls-1 {
        fill: url(#linear-gradient);
      }
    </style>
    <linearGradient id="linear-gradient" x1="203.53" y1="549.32" x2="1858.32" y2="1422.08" gradientUnits="userSpaceOnUse">
      <stop offset="0" stop-color="#f2f2f2"/>
      <stop offset="1" stop-color="#f2f2f2"/>
    </linearGradient>
  </defs>
  <g id="Layer_1-2" data-name="Layer 1">
    <circle class="cls-1" cx="935.23" cy="935.23" r="935.23"/>
    <path d="M935.23,161.05c-427.54,0-774.18,346.64-774.18,774.18s346.64,774.18,774.18,774.18,774.18-346.64,774.18-774.18S1362.77,161.05,935.23,161.05ZM610.2,656.52c48.64,0,86.26,35.42,90.64,77.42,4.45,37.61-11.03,70.77-53.03,90.71-22.13,11.03-30.97,11.1-35.42,4.45-2.19-4.45,0-8.84,4.45-13.29,39.81-33.16,39.81-59.74,35.35-97.29-2.19-24.39-19.87-39.87-37.61-39.87-77.42,0-188,172.51-172.51,298.64,6.65,48.64,35.42,106.19,97.35,106.19,19.87,0,41.93-6.65,61.93-15.48,32.26-17.03,51.55-30.32,70.77-51.61-4.71-57.1,45.42-132,119.42-132,33.23,0,59.74,13.23,61.93,37.61,4.39,33.16-24.32,37.55-33.16,37.55s-24.39-2.19-24.39-10.97c-2.19-8.9,19.94-4.52,17.74-24.39-2.26-13.29-15.48-17.68-28.77-17.68-46.45,0-72.97,64.13-66.39,103.93,2.26,17.74,11.1,35.42,28.84,35.42,13.23,0,33.16-20,39.81-48.71,4.39-19.87,22.13-33.16,37.61-33.16,6.58,0,10.97,2.19,13.23,11.03v8.9c-2.19,8.84-8.84,35.35-6.58,42,0,4.45,2.19,11.03,10.97,11.03,5.94,0,28.13-11.61,50.13-29.61,7.55-38.06,16.32-83.74,16.32-87.55,2.19-15.48,8.84-30.97,39.81-30.97,6.65,0,11.03,2.19,13.23,11.03v8.9l-8.77,39.81c28.71-37.61,70.77-64.13,97.29-64.13,11.1,0,19.94,6.58,19.94,17.68,0,6.65,0,17.68-4.45,28.77-8.84,24.32-19.94,61.93-26.58,95.1,0,8.84,2.26,17.68,13.35,17.68s44.19-13.29,70.71-48.64l.45-.26c-.13-4.39-.45-8.65-.45-13.03,0-26.52,2.26-48.64,6.71-64.13,4.39-17.68,26.52-33.16,39.81-33.16,6.65,0,13.23,4.45,13.23,11.03,0,2.26,0,6.65-2.19,8.84-8.84,28.77-15.48,55.29-15.48,81.87,0,15.48,2.19,37.55,6.58,50.84,0,2.19,2.26,4.45,4.52,4.45,4.39,0,35.35-28.71,57.42-66.32-19.87-13.29-30.97-35.42-30.97-61.93,0-46.45,28.77-70.77,55.35-70.77,22.13,0,39.81,15.48,39.81,46.45,0,19.87-6.65,41.93-17.68,61.93h6.58c14.19.46,27.91-5.17,37.68-15.48,2.03-3.35,5.05-5.99,8.65-7.55,21.61-27.42,53.55-47.74,90.97-47.74,30.97,0,59.61,13.23,61.87,37.55,4.39,33.23-24.39,39.87-33.23,39.87l-.13-.13c-8.9,0-24.32-2.26-24.32-11.1s19.94-4.39,17.68-24.26c-2.19-13.29-15.48-17.74-28.77-17.74-44.26,0-72.9,57.48-66.32,103.93,2.19,17.74,11.03,37.61,28.71,37.61,13.29,0,33.23-19.87,42.06-48.64,4.39-17.68,22.13-33.16,37.61-33.16,6.65,0,10.97,2.19,13.23,11.03,0,4.45,0,13.29-8.84,42.06-10.97,19.87-11.03,30.97-8.84,39.81,2.19,17.68,11.03,30.97,19.94,37.61,2.19,2.19,4.39,6.58,4.39,6.58,0,4.45-2.19,8.9-8.84,8.9-2.19,0-4.39,0-6.65-2.26-33.16-13.23-46.45-35.35-50.9-57.48-13.23,15.48-28.71,24.32-46.45,24.32-28.71,0-57.42-26.52-61.93-59.74-1.27-14.14.38-28.39,4.84-41.87-13.1,8.39-27.23,13.1-40.19,13.1h-10.97c-28.84,42.06-59.81,70.84-81.93,84.06-7.51,4-15.82,6.29-24.32,6.71-4.39,0-11.03-2.26-13.23-6.71-6.13-9.81-10.06-25.29-12.45-43.03-31.03,34-73.87,51.93-93.74,51.93-22.13,0-35.35-13.29-37.55-35.48v-24.26c6.58-48.64,24.32-77.42,24.32-86.26-.13-2.42-2.04-4.36-4.45-4.52-15.48,0-66.32,53.16-75.22,88.58l-6.65,28.71c-4.39,19.94-24.32,33.23-37.55,33.23-6.65,0-11.1-2.26-13.29-11.1v-8.84l2.97-15.03c-28.06,20-56.13,32.77-69.35,32.77-19.87,0-30.97-11.1-33.16-26.58-13.29,17.68-28.71,26.58-48.64,26.58-22.71,0-44.9-15.48-55.61-38.26-15.74,17.74-33.74,35.68-54.97,49.29-30.97,19.94-66.32,35.42-108.39,35.42-37.55,0-70.77-19.94-88.45-37.61-26.58-24.32-42-61.93-44.26-97.35-13.23-108.39,53.1-247.74,154.84-309.67,24.39-13.23,48.71-22.13,73.03-22.13ZM1240.51,868.84c-6.71,0-11.1,11.1-11.1,22.13,0,17.68,8.84,37.61,19.94,48.71,4.33-12.07,6.55-24.79,6.58-37.61,0-22.13-8.84-33.23-15.48-33.23h.06Z"/>
  </g>
</svg>