<?xml version="1.0" encoding="UTF-8"?>
<svg id="Layer_2" data-name="Layer 2" xmlns="http://www.w3.org/2000/svg" xmlns:xlink="http://www.w3.org/1999/xlink" viewBox="0 0 1870.45 1870.45">
  <defs>
    <style>
      .cls-1 {
        fill: #fff;
      }

      .cls-2 {
        fill: url(#linear-gradient);
      }
    </style>
    <linearGradient id="linear-gradient" x1="203.53" y1="549.32" x2="1858.32" y2="1422.08" gradientUnits="userSpaceOnUse">
      <stop offset="0" stop-color="#7ac943"/>
      <stop offset="1" stop-color="#00bd06"/>
    </linearGradient>
  </defs>
  <g id="Layer_1-2" data-name="Layer 1">
    <circle class="cls-2" cx="935.23" cy="935.23" r="935.23"/>
    <path class="cls-1" d="M854.86,220.28c-23,1.13-74.53,16.21-123.15,39.14-48.62,23.24-220.2,128.75-223.54,389.41,4.29,246.95,229.2,666.75,381.13,801.63,0,0-246.72-414.19-264.47-775.3-17.99-361.05,230.03-454.89,230.03-454.89ZM1014.47,220.28s247.79,93.84,230.03,454.89c-17.81,361.11-264.47,775.3-264.47,775.3,151.75-134.89,376.78-554.68,381.07-801.63-3.4-260.66-174.92-366.17-223.54-389.41-48.62-22.94-100.15-38.01-123.09-39.14ZM932.25,221.41c-11.59-.15-23.01,2.81-33.07,8.58-91.22,49.27-148.11,227.53-132.15,506.24,11.02,193.16,60.12,434.39,144.3,714.23h41.71c84.19-279.84,133.46-520.84,144.48-713.99,15.97-278.65-40.99-457.21-132.21-506.48-10.06-5.76-21.48-8.73-33.07-8.58ZM638.35,283.79s-266.56,109.8-213.65,426.53c52.67,316.96,332.93,655.07,416.22,726.86,29.97,27.23-344.19-390.12-380.47-756.59-17.34-138.4,23.24-291.94,177.9-396.8ZM1232.11,283.79c154.61,104.86,195.18,258.39,177.84,396.8-36.22,366.47-410.38,783.82-380.47,756.59,83.29-71.79,363.61-409.9,416.28-726.86,52.91-316.72-213.65-426.53-213.65-426.53ZM826.08,1521.84l28.54,128.33h154.85l29.07-128.33h-212.46Z"/>
  </g>
</svg>