<?xml version="1.0" encoding="UTF-8"?>
<svg id="Layer_2" data-name="Layer 2" xmlns="http://www.w3.org/2000/svg" viewBox="0 0 1870.45 1870.45">
  <defs>
    <style>
      .cls-1 {
        fill: #300;
      }

      .cls-2 {
        fill: #ff9a00;
      }
    </style>
  </defs>
  <g id="Layer_1-2" data-name="Layer 1">
    <circle class="cls-2" cx="935.23" cy="935.23" r="935.23"/>
    <g>
      <rect class="cls-1" x="343.47" y="358.27" width="1183.51" height="1153.91" rx="90.57" ry="90.57"/>
      <path class="cls-2" d="M916.98,1050.77h-183.41l-37.3,115.91c-1.02,4.38-5.04,7.4-9.53,7.15h-92.88c-5.31,0-7.16-2.92-5.55-8.75l158.79-457.39c1.54-4.77,3.13-10.17,4.77-16.2,2.06-10.6,3.12-21.37,3.17-32.16-.4-2.67,1.45-5.15,4.11-5.55.02,0,.03,0,.05,0,.46-.07.93-.07,1.39,0h126.23c3.7,0,5.81,1.32,6.36,3.96l180.22,508.14c1.6,5.28,0,7.94-4.77,7.94h-103.21c-3.67.41-7.06-1.97-7.94-5.55l-40.5-117.48ZM762.17,950.66h125.42c-3.16-10.6-6.86-22.51-11.11-35.73-4.24-13.22-8.74-27.38-13.49-42.49l-14.3-45.24c-4.77-15.09-9.13-29.65-13.1-43.69-3.96-14.04-7.57-26.84-10.81-38.41h-.79c-4.47,21.44-10.04,42.63-16.68,63.5-7.4,23.83-14.95,48.19-22.63,73.05-7.68,24.87-15.19,47.87-22.52,69Z"/>
      <path class="cls-2" d="M1180.55,737.96c-16.38.65-32.26-5.7-43.67-17.47-11.36-12.27-17.36-28.56-16.66-45.26-.56-16.53,5.94-32.51,17.86-43.97,11.8-11.32,27.62-17.47,43.97-17.08,19.05,0,34,5.69,44.85,17.08,11,11.94,16.83,27.75,16.2,43.97.67,16.78-5.49,33.11-17.08,45.26-12.07,11.9-28.54,18.23-45.47,17.47ZM1125.78,1165.87v-379.5c0-4.77,2.11-7.15,6.34-7.15h97.63c4.21,0,6.34,2.31,6.34,7.15v379.5c0,5.28-2.11,7.94-6.34,7.94h-96.82c-4.77.02-7.15-2.64-7.15-7.94Z"/>
    </g>
  </g>
</svg>