<?xml version="1.0" encoding="UTF-8"?>
<svg id="Layer_2" data-name="Layer 2" xmlns="http://www.w3.org/2000/svg" viewBox="0 0 1870.45 1870.45">
  <defs>
    <style>
      .cls-1 {
        fill: #99f;
      }

      .cls-2 {
        fill: #00005b;
      }
    </style>
  </defs>
  <g id="Layer_1-2" data-name="Layer 1">
    <circle class="cls-1" cx="935.23" cy="935.23" r="935.23"/>
    <g>
      <path class="cls-2" d="M553.05,358.27h764.33c115.66-.1,209.5,93.57,209.6,209.23,0,.12,0,.23,0,.35v734.79c.09,115.64-93.59,209.46-209.23,209.55-.12,0-.25,0-.37,0h-764.33c-115.64.1-209.47-93.56-209.58-209.21,0-.12,0-.23,0-.35v-734.79c-.09-115.66,93.6-209.49,209.25-209.58.11,0,.22,0,.32,0Z"/>
      <path class="cls-1" d="M624.57,1167.51v-507.45c0-3.44,1.48-5.42,4.94-5.42,8.38,0,16.27,0,27.69-.48,11.84-.48,24.16-.48,37.48-.99s27.69-.48,42.9-.99c15.21-.51,30-.48,44.89-.48,40.43,0,73.85,4.94,101.55,15.28,24.76,8.41,47.34,22.23,66.1,40.46,15.9,15.94,28.18,35.11,36,56.22,7.46,20.55,11.29,42.23,11.33,64.09,0,42.42-9.86,77.44-29.59,105.05-19.84,27.58-47.53,48.54-79.46,60.14-33.53,12.32-70.53,16.75-110.96,16.75-11.84,0-19.73,0-24.65-.48s-11.84-.48-21.21-.48v158.29c.45,3.36-1.9,6.45-5.26,6.9-.05,0-.11.01-.16.02h-95.68c-3.95,0-5.91-1.98-5.91-6.42ZM732.07,749.79v165.7c6.92.48,13.32.99,19.22.99h26.06c19.28.01,38.45-3.01,56.8-8.95,15.72-4.62,29.77-13.69,40.43-26.12,10.36-12.35,15.3-29.1,15.3-50.77.45-15.4-3.49-30.61-11.35-43.85-8.25-12.82-20.38-22.67-34.62-28.11-18.52-7.26-38.33-10.61-58.2-9.85-12.81,0-24.16,0-33.53.48-6.74-.43-13.51-.27-20.22.48h.12Z"/>
      <path class="cls-1" d="M1066.43,778.43h86.29c4.8.11,8.98,3.29,10.36,7.89,1.51,3.96,2.5,8.11,2.95,12.32.99,4.92,1.98,10.34,2.47,15.28.48,5.42.99,11.35.99,17.75,14.81-17.28,32.7-31.65,52.76-42.4,22.92-12.75,48.73-19.37,74.96-19.25,3.36-.45,6.45,1.9,6.9,5.26,0,.05.01.11.02.16v98.15c0,3.95-2.47,5.42-7.89,5.42-17.89-.6-35.79,1.05-53.26,4.92-14.23,2.96-28.11,7.42-41.4,13.32-9.54,4.31-18.1,10.52-25.16,18.26v251.55c0,4.92-1.98,6.92-6.42,6.92h-97.25c-3.78.56-7.3-2.06-7.86-5.84,0-.03,0-.06-.01-.09v-275.23c0-11.84,0-24.16-.51-36.93-.51-12.76-.48-25.64-.99-38.45,0-11.35-.97-22.2-1.96-33.53-.5-2.45,1.03-4.85,3.46-5.42,0-.51.97-.51,1.48,0l.07-.07Z"/>
    </g>
  </g>
</svg>