<?xml version="1.0" encoding="UTF-8"?>
<svg id="Layer_2" data-name="Layer 2" xmlns="http://www.w3.org/2000/svg" viewBox="0 0 1870.45 1870.45">
  <defs>
    <style>
      .cls-1 {
        fill: #470137;
      }

      .cls-2 {
        fill: #ff61f6;
      }
    </style>
  </defs>
  <g id="Layer_1-2" data-name="Layer 1">
    <circle class="cls-2" cx="935.23" cy="935.23" r="935.23"/>
    <g>
      <rect class="cls-1" x="335.66" y="350.65" width="1199.13" height="1169.16" rx="90.75" ry="90.75"/>
      <path class="cls-2" d="M966.03,658.12l-149.62,246.94,160.08,262.24c1.03,1.84,1.31,4,.8,6.04-.54,1.87-2.34.7-5.62,1.22h-114.19c-8.05,0-13.67-.28-16.89-5.64-10.72-20.92-21.44-41.7-32.17-62.34-10.73-20.64-22.13-41.7-34.19-63.18-12.04-21.43-23.97-43.16-35.78-65.17h-.82c-10.73,21.47-21.86,42.92-33.39,64.37-11.53,21.45-22.92,42.77-34.19,63.95-11.26,21.17-22.79,42.23-34.59,63.18-2.15,4.82-5.9,5.34-11.26,5.34h-110.26c-2.13,0-3.32.84-3.6-1.31-.31-1.96.12-3.97,1.19-5.64l155.26-255.06-151.23-255.76c-1.61-2.13-1.87-3.88-.8-5.22,1.21-1.37,3-2.08,4.82-1.92h113.42c2.48-.13,4.95.27,7.25,1.19,1.92,1.1,3.56,2.62,4.82,4.45,9.64,21.43,20.37,42.88,32.17,64.35,11.81,21.47,23.74,42.6,35.8,63.39,12.04,20.92,23.17,42.1,33.37,63.55h.82c10.72-21.98,21.57-43.43,32.57-64.35,11-20.92,22.26-41.98,33.79-63.18,11.51-21.18,22.64-42.24,33.37-63.18.63-1.99,1.74-3.79,3.23-5.24,1.99-1.01,4.22-1.42,6.43-1.19h105.3c2.54-.48,4.99,1.2,5.46,3.74.3,1.59-.25,3.22-1.44,4.31l.07.12Z"/>
      <path class="cls-2" d="M1196.9,1185c-37.03.57-73.72-7.12-107.41-22.51-31.37-14.53-57.6-38.23-75.23-67.98-18.22-30.3-27.34-68.23-27.35-113.82-.26-36.89,9.17-73.2,27.35-105.3,18.75-32.7,46.32-59.46,79.56-77.22,34.83-19.3,76.95-28.95,126.36-28.95,2.67,0,6.15,0,10.46.4s9.36.68,15.28,1.19v-158.56c0-3.74,1.61-5.62,4.82-5.62h101.35c2.33-.33,4.49,1.27,4.84,3.6.05.4.05.81,0,1.22v475.39c0,9.13.4,19.05,1.19,29.76.8,10.72,1.47,20.37,2.01,28.97.2,3.42-1.71,6.61-4.82,8.05-26.15,10.9-53.38,18.99-81.24,24.13-25.46,4.7-51.29,7.12-77.17,7.23ZM1246.04,1085.27v-219.61c-4.35-1.16-8.79-1.95-13.27-2.34-5.48-.55-10.99-.83-16.5-.82-19.52-.19-38.82,4.22-56.32,12.87-17.01,8.48-31.52,21.24-42.12,37.02-11,16.08-16.5,37.26-16.5,63.53-.39,17.53,2.47,34.99,8.45,51.48,4.86,13.29,12.54,25.36,22.51,35.4,9.56,9.22,21.13,16.11,33.79,20.12,13.39,4.32,27.37,6.49,41.44,6.41,7.49,0,14.45-.27,20.9-.8,5.93-.48,11.8-1.58,17.5-3.28h.12Z"/>
    </g>
  </g>
</svg>